<svg id="Layer_2" height="512" viewBox="0 0 128 128" width="512" xmlns="http://www.w3.org/2000/svg" data-name="Layer 2">
  <path d="m1.75 115.5h124.5v-52l-14.5-11.5v-17.25l-16-5.5-4-8.75-27.75-8-31.75 9.25v10.25l-18.25 8.75.25 12-12.5 7.25z" fill="#5d4037"/>
  <path d="m111.75 52v-17.25l-16-5.5-4-8.75-27.75-8-31.75 9.25v2.128l28.748-8.376 27.75 8 4 8.75 16 5.5v17.25l14.5 11.5v48.998h3.002v-52z" fill="#4c352e"/>
  <path d="m32.25 62.756h63.5v10.744h-63.5z" fill="#00acc1"/>
  <path d="m29.256 115.5 10-42h10.744l-10 42z" fill="#ffca90"/>
  <path d="m98.744 115.5-10-42h-10.744l10 42z" fill="#ffca90"/>
  <path d="m105.247 115.5 4.128-12.125 6.25-3.75h10.625v15.875z" fill="#fb8c00"/>
  <path d="m115.625 99.625-6.25 3.75-.343 1.006 4.591-2.754h10.625v13.873h2.002v-15.875z" fill="#ef6c00"/>
  <path d="m1.75 98.625h10.5l7.625 6.375 7 2.875 3.125 4.501-.744 3.124h-27.506z" fill="#fb8c00"/>
  <path d="m26.875 107.875-7-2.875-7.625-6.375h-10.5v2.002h7.498l7.625 6.375 7 2.875 3.125 4.501-.268 1.122h2.526l.744-3.124z" fill="#ef6c00"/><g fill="#4c352e"><path d="m111.75 52h-13.006a1.75 1.75 0 0 0 -1.75 1.75 1.75 1.75 0 0 0 1.75 1.75h17.419z"/><path d="m55.375 33.75a1.75 1.75 0 0 0 -1.75-1.75h-21.375l-7.3 3.5h28.675a1.75 1.75 0 0 0 1.75-1.75z"/><path d="m31.75 54.5a1.75 1.75 0 0 0 -1.75-1.75h-15.75l-6.034 3.5h21.784a1.75 1.75 0 0 0 1.75-1.75z"/></g><path d="m32.25 62.756v3h52.756a7.741 7.741 0 0 1 7.742 7.744h3v-10.744z" fill="#0097a7"/><path d="m49.087 77.333.913-3.833h-10.744l-.912 3.833z" fill="#dda976"/><path d="m89.656 77.333-.912-3.833h-10.744l.913 3.833z" fill="#dda976"/><path d="m57.333 61.006a1.75 1.75 0 0 0 0 3.5h2.667a1.75 1.75 0 0 0 0-3.5z" fill="#28201e"/><path d="m126.25 80.417a1.75 1.75 0 0 0 1.75-1.75v-15.167a1.75 1.75 0 0 0 -.663-1.371l-13.837-10.975v-16.404a1.75 1.75 0 0 0 -1.181-1.655l-15.29-5.256-3.687-8.067a1.751 1.751 0 0 0 -1.107-.954l-27.75-8a1.766 1.766 0 0 0 -.974 0l-31.75 9.25a1.75 1.75 0 0 0 -1.261 1.682v9.15l-17.256 8.272a1.75 1.75 0 0 0 -.993 1.615l.229 10.968-11.608 6.731a1.749 1.749 0 0 0 -.872 1.514v55.5a1.75 1.75 0 0 0 1.75 1.75h124.5a1.75 1.75 0 0 0 1.75-1.75v-25.833a1.75 1.75 0 0 0 -3.5 0v8.208h-8.875a1.751 1.751 0 0 0 -.9.25l-6.25 3.75a1.75 1.75 0 0 0 -.756.937l-3.724 10.939h-3.868l-9.167-38.5h4.79a1.75 1.75 0 0 0 1.75-1.751v-10.744a1.75 1.75 0 0 0 -1.75-1.75h-27.417a1.75 1.75 0 0 0 0 3.5h25.667v7.244h-60v-7.244h15a1.75 1.75 0 0 0 0-3.5h-16.75a1.75 1.75 0 0 0 -1.75 1.75v10.744a1.75 1.75 0 0 0 1.75 1.75h4.791l-7.841 32.912-.892-1.285a1.749 1.749 0 0 0 -.772-.621l-6.75-2.772-7.417-6.2a1.751 1.751 0 0 0 -1.123-.407h-8.746v-35.869l11.22-6.508h15.28a1.75 1.75 0 0 0 0-3.5h-14.036l-.191-9.159 16.875-8.091h20.977a1.75 1.75 0 0 0 0-3.5h-19.625v-7.187l30-8.741 26.49 7.637 3.666 8.019a1.751 1.751 0 0 0 1.023.927l14.821 5.095v14.25h-11.256a1.75 1.75 0 1 0 0 3.5h12.4l13.36 10.6v14.317a1.75 1.75 0 0 0 1.746 1.75zm-49.632-5.167 9.167 38.5h-43.569l9.167-38.5zm34.208 29.3 5.285-3.171h8.39v12.371h-16.81zm-23.465-29.3 9.167 38.5h-7.146l-9.167-38.5zm-39.577 0-9.167 38.5h-7.145l9.167-38.5zm-36.169 25.125 7.138 5.968a1.756 1.756 0 0 0 .458.276l6.522 2.679 2.384 3.434-.242 1.019h-24.375v-13.376z" fill="#28201e"/></svg>
